<?xml version="1.0" encoding="utf-8"?>
<!-- Generator: Adobe Illustrator 26.4.1, SVG Export Plug-In . SVG Version: 6.00 Build 0)  -->
<svg version="1.1" id="Layer_1" xmlns="http://www.w3.org/2000/svg" xmlns:xlink="http://www.w3.org/1999/xlink" x="0px" y="0px"
	 viewBox="0 0 24 24" style="enable-background:new 0 0 24 24;" xml:space="preserve">
<path d="M22,21.9c-0.5,0-0.9-0.4-0.9-0.9v-2c0-1.4-1-2.7-2.3-3c-0.5-0.1-0.8-0.6-0.6-1.1s0.6-0.8,1.1-0.6
	c2.2,0.6,3.7,2.5,3.7,4.7v2C22.9,21.5,22.5,21.9,22,21.9z M17,21.9c-0.5,0-0.9-0.4-0.9-0.9c0-1.7,0-2.6-0.2-3.2
	c-0.3-0.8-0.9-1.4-1.7-1.7c-0.6-0.2-1.4-0.2-3.2-0.2H8c-1.7,0-2.6,0-3.2,0.2C4,16.5,3.5,17,3.1,17.8c-0.2,0.6-0.2,1.4-0.2,3.2
	c0,0.5-0.4,0.9-0.9,0.9S1.1,21.5,1.1,21c0-2,0-3,0.4-3.9C2,15.9,2.9,15,4.1,14.5C5,14.1,6,14.1,8,14.1h3c2,0,3,0,3.9,0.4
	c1.2,0.5,2.2,1.4,2.7,2.7c0.4,0.9,0.4,1.9,0.4,3.9C17.9,21.5,17.5,21.9,17,21.9z M9.5,11.9c-2.7,0-4.9-2.2-4.9-4.9s2.2-4.9,4.9-4.9
	s4.9,2.2,4.9,4.9S12.2,11.9,9.5,11.9z M9.5,3.9C7.8,3.9,6.4,5.3,6.4,7s1.4,3.1,3.1,3.1s3.1-1.4,3.1-3.1S11.2,3.9,9.5,3.9z
	 M15.5,11.6c-0.4,0-0.7-0.2-0.8-0.6c-0.2-0.5,0-1,0.5-1.2c1.2-0.5,1.9-1.6,1.9-2.9s-0.8-2.4-1.9-2.9c-0.5-0.2-0.7-0.7-0.5-1.2
	c0.2-0.5,0.7-0.7,1.2-0.5C17.7,3.2,18.9,5,18.9,7s-1.2,3.8-3.1,4.5C15.7,11.6,15.6,11.6,15.5,11.6z"/>
</svg>
