<?xml version="1.0" encoding="utf-8"?>
<!-- Generator: Adobe Illustrator 26.4.1, SVG Export Plug-In . SVG Version: 6.00 Build 0)  -->
<svg version="1.1" id="Layer_1" xmlns="http://www.w3.org/2000/svg" xmlns:xlink="http://www.w3.org/1999/xlink" x="0px" y="0px"
	 viewBox="0 0 24 24" style="enable-background:new 0 0 24 24;" xml:space="preserve">
<path d="M12,22c-1.1,0-2.2-0.4-3.1-1.1c-0.4-0.4-0.5-1-0.1-1.4c0.4-0.4,1-0.5,1.4-0.1c1,0.8,2.6,0.8,3.5,0
	c0.4-0.4,1-0.3,1.4,0.1c0.4,0.4,0.3,1-0.1,1.4C14.2,21.6,13.1,22,12,22z M18.1,17.5H5.9c-1.6,0-2,0-2.4-0.3C3.2,17,3,16.6,3,16.2
	c0-0.5,0.1-0.8,1.1-2.4c0.9-1.4,1.4-3.2,1.4-5.4c0-1.7,0.7-3.3,1.9-4.5C8.6,2.7,10.3,2,12,2c1.7,0,3.4,0.7,4.6,1.9
	c1.2,1.2,1.9,2.8,1.9,4.5c0,2.2,0.5,4,1.4,5.4c1,1.6,1.2,1.9,1.1,2.4c0,0.5-0.2,0.8-0.6,1.1C20,17.5,19.6,17.5,18.1,17.5z M19,16.3
	L19,16.3L19,16.3z M5.5,15.5c0.2,0,0.3,0,0.5,0h12.1c0.2,0,0.3,0,0.5,0c-0.1-0.2-0.3-0.4-0.4-0.6c-1.1-1.7-1.7-3.9-1.7-6.5
	c0-1.2-0.5-2.3-1.3-3.1C14.3,4.5,13.2,4,12,4c-1.2,0-2.3,0.5-3.2,1.3C8,6.1,7.5,7.2,7.5,8.4c0,2.6-0.6,4.7-1.7,6.5
	C5.7,15.1,5.6,15.3,5.5,15.5z M19.5,15.5L19.5,15.5L19.5,15.5z"/>
</svg>
