<?xml version="1.0" encoding="utf-8"?>
<!-- Generator: Adobe Illustrator 26.4.1, SVG Export Plug-In . SVG Version: 6.00 Build 0)  -->
<svg version="1.1" id="Layer_1" xmlns="http://www.w3.org/2000/svg" xmlns:xlink="http://www.w3.org/1999/xlink" x="0px" y="0px"
	 viewBox="0 0 24 24" style="enable-background:new 0 0 24 24;" xml:space="preserve">
<path d="M16.2,22.8H7.8c-1.8,0-2.7,0-3.5-0.4C3.5,22,3,21.5,2.6,20.7c-0.4-0.8-0.4-1.7-0.4-3.5V8.8c0-1.8,0-2.7,0.4-3.5
	C3,4.5,3.5,4,4.3,3.6C5,3.2,5.8,3.2,7.2,3.2V2c0-0.5,0.4-0.8,0.8-0.8S8.8,1.5,8.8,2v1.2h6.3V2c0-0.5,0.4-0.8,0.8-0.8
	s0.8,0.4,0.8,0.8v1.2c1.4,0,2.2,0.1,2.9,0.4C20.5,4,21,4.5,21.4,5.3c0.4,0.8,0.4,1.7,0.4,3.5v8.4c0,1.8,0,2.7-0.4,3.5
	c-0.4,0.7-0.9,1.3-1.7,1.7C18.9,22.8,18,22.8,16.2,22.8z M3.8,10.8v6.4c0,1.5,0,2.3,0.2,2.8c0.2,0.4,0.5,0.7,0.9,0.9
	c0.5,0.2,1.3,0.2,2.8,0.2h8.4c1.5,0,2.3,0,2.8-0.2c0.4-0.2,0.7-0.5,0.9-0.9c0.2-0.5,0.2-1.3,0.2-2.8v-6.4H3.8z M3.8,9.2h16.3V8.8
	c0-1.5,0-2.3-0.2-2.8c-0.2-0.4-0.5-0.7-0.9-0.9c-0.4-0.2-1-0.2-2.2-0.2V6c0,0.5-0.4,0.8-0.8,0.8S15.2,6.5,15.2,6V4.8H8.8V6
	c0,0.5-0.4,0.8-0.8,0.8S7.2,6.5,7.2,6V4.8c-1.1,0-1.8,0-2.1,0.2C4.6,5.3,4.3,5.6,4.1,6C3.8,6.5,3.8,7.3,3.8,8.8V9.2z"/>
</svg>
