<?xml version="1.0" encoding="utf-8"?>
<!-- Generator: Adobe Illustrator 26.4.1, SVG Export Plug-In . SVG Version: 6.00 Build 0)  -->
<svg version="1.1" id="Layer_1" xmlns="http://www.w3.org/2000/svg" xmlns:xlink="http://www.w3.org/1999/xlink" x="0px" y="0px"
	 viewBox="0 0 24 24" style="enable-background:new 0 0 24 24;" xml:space="preserve">
<g>
	<path d="M11.3,11.3C11.1,11.5,11,11.7,11,12v6c0,0.3,0.1,0.5,0.3,0.7c0.2,0.2,0.4,0.3,0.7,0.3s0.5-0.1,0.7-0.3
		c0.2-0.2,0.3-0.4,0.3-0.7v-6c0-0.3-0.1-0.5-0.3-0.7C12.3,10.9,11.7,10.9,11.3,11.3z"/>
	<path class="st0" d="M6.3,14.3C6.1,14.5,6,14.7,6,15v3c0,0.3,0.1,0.5,0.3,0.7C6.5,18.9,6.7,19,7,19s0.5-0.1,0.7-0.3
		C7.9,18.5,8,18.3,8,18v-3c0-0.3-0.1-0.5-0.3-0.7C7.3,13.9,6.7,13.9,6.3,14.3z"/>
	<path class="st0" d="M17.7,8.3c-0.4-0.4-1-0.4-1.4,0C16.1,8.5,16,8.7,16,9v9c0,0.3,0.1,0.5,0.3,0.7S16.7,19,17,19s0.5-0.1,0.7-0.3
		S18,18.3,18,18V9C18,8.7,17.9,8.5,17.7,8.3z"/>
</g>
<path d="M22.8,6.4c-0.2-1.6-0.7-2.8-1.6-3.6c-0.9-0.9-2-1.3-3.6-1.6C16.2,1,14.4,1,12.1,1h-0.1C9.6,1,7.8,1,6.4,1.2
	C4.7,1.4,3.6,1.9,2.8,2.8c-0.9,0.9-1.3,2-1.6,3.6C1,7.8,1,9.6,1,11.9v0.1c0,2.3,0,4.1,0.2,5.6c0.2,1.6,0.7,2.8,1.6,3.6
	c0.9,0.9,2,1.3,3.6,1.6C7.8,23,9.6,23,11.9,23h0.1c2.3,0,4.1,0,5.6-0.2c1.6-0.2,2.8-0.7,3.6-1.6c0.9-0.9,1.3-2,1.6-3.6
	c0.2-1.4,0.2-3.3,0.2-5.6v-0.1C23,9.6,23,7.8,22.8,6.4z M4.2,4.2c0.5-0.5,1.3-0.8,2.5-1C7.9,3,9.7,3,12,3c2.3,0,4.1,0,5.4,0.2
	c1.2,0.2,1.9,0.5,2.5,1c0.5,0.5,0.8,1.3,1,2.5C21,7.9,21,9.7,21,12c0,2.3,0,4.1-0.2,5.4c-0.2,1.2-0.5,1.9-1,2.5
	c-0.5,0.5-1.3,0.8-2.5,1C16.1,21,14.3,21,12,21c-2.3,0-4.1,0-5.4-0.2c-1.2-0.2-1.9-0.5-2.5-1c-0.5-0.5-0.8-1.3-1-2.5
	C3,16.1,3,14.3,3,12c0-2.3,0-4.1,0.2-5.4C3.3,5.5,3.6,4.7,4.2,4.2z"/>
</svg>
