<svg width="24" height="24" viewBox="0 0 24 24" xmlns="http://www.w3.org/2000/svg">
<path d="M12.7113 17.5053C12.5594 17.349 12.485 17.1665 12.488 16.9578C12.491 16.749 12.5706 16.5691 12.7268 16.418L17.1382 12.131L12.8512 7.71962C12.6993 7.56338 12.6249 7.38089 12.6279 7.17213C12.6309 6.96337 12.7105 6.78343 12.8667 6.63233C13.023 6.4805 13.2055 6.40607 13.4142 6.40906C13.623 6.41204 13.8029 6.49165 13.954 6.64787L18.7769 11.6106C18.9287 11.7669 19.0031 11.9494 19.0001 12.1581C18.9972 12.3669 18.9176 12.5468 18.7613 12.6979L13.7986 17.5208C13.6423 17.6726 13.4598 17.7471 13.2511 17.7441C13.0423 17.7411 12.8624 17.6615 12.7113 17.5053ZM7.2748 17.4275C7.12297 17.2713 7.04855 17.0888 7.05153 16.88C7.05452 16.6713 7.13412 16.4913 7.29035 16.3402L11.7017 12.0532L7.41471 7.64189C7.26288 7.48566 7.18846 7.30316 7.19144 7.0944C7.19443 6.88564 7.27403 6.70571 7.43026 6.5546C7.58649 6.40277 7.76899 6.32835 7.97775 6.33133C8.18651 6.33432 8.36644 6.41392 8.51755 6.57015L13.3404 11.5329C13.4922 11.6892 13.5667 11.8716 13.5637 12.0804C13.5607 12.2892 13.4811 12.4691 13.3249 12.6202L8.36209 17.4431C8.20586 17.5949 8.02336 17.6693 7.8146 17.6663C7.60584 17.6634 7.42591 17.5837 7.2748 17.4275Z"/>
</svg>
