<svg width="24" height="24" viewBox="0 0 24 24" xmlns="http://www.w3.org/2000/svg">
<path d="M2.425 15.7L10.825 7.27502C10.925 7.17502 11.0333 7.10402 11.15 7.06202C11.2667 7.02002 11.3917 6.99935 11.525 7.00002C11.6583 7.00002 11.7833 7.02102 11.9 7.06302C12.0167 7.10502 12.125 7.17568 12.225 7.27502L20.65 15.7C20.8833 15.9333 21 16.225 21 16.575C21 16.925 20.875 17.225 20.625 17.475C20.375 17.725 20.0833 17.85 19.75 17.85C19.4167 17.85 19.125 17.725 18.875 17.475L11.525 10.125L4.175 17.475C3.94166 17.7083 3.654 17.825 3.312 17.825C2.97 17.825 2.67433 17.7 2.425 17.45C2.175 17.2 2.05 16.9083 2.05 16.575C2.05 16.2417 2.175 15.95 2.425 15.7Z"/>
</svg>
