<svg width="24" height="24" viewBox="0 0 24 24" xmlns="http://www.w3.org/2000/svg">
<path d="M8.29998 2.425L16.725 10.825C16.825 10.925 16.896 11.0333 16.938 11.15C16.98 11.2667 17.0007 11.3917 17 11.525C17 11.6583 16.979 11.7833 16.937 11.9C16.895 12.0167 16.8243 12.125 16.725 12.225L8.29998 20.65C8.06665 20.8833 7.77498 21 7.42498 21C7.07498 21 6.77498 20.875 6.52498 20.625C6.27498 20.375 6.14998 20.0833 6.14998 19.75C6.14998 19.4167 6.27498 19.125 6.52498 18.875L13.875 11.525L6.52498 4.175C6.29165 3.94167 6.17498 3.654 6.17498 3.312C6.17498 2.97 6.29998 2.67433 6.54998 2.425C6.79998 2.175 7.09165 2.05 7.42498 2.05C7.75832 2.05 8.04998 2.175 8.29998 2.425Z"/>
</svg>
