<svg width="24" height="24" viewBox="0 0 24 24" xmlns="http://www.w3.org/2000/svg">
<path d="M6.49475 12.7113C6.65098 12.5594 6.83348 12.485 7.04224 12.488C7.251 12.491 7.43093 12.5706 7.58204 12.7268L11.869 17.1382L16.2804 12.8512C16.4366 12.6993 16.6191 12.6249 16.8279 12.6279C17.0366 12.6309 17.2166 12.7105 17.3677 12.8667C17.5195 13.023 17.5939 13.2055 17.5909 13.4142C17.588 13.623 17.5084 13.8029 17.3521 13.954L12.3894 18.7769C12.2331 18.9287 12.0506 19.0031 11.8419 19.0001C11.6331 18.9972 11.4532 18.9176 11.3021 18.7613L6.4792 13.7986C6.32737 13.6423 6.25295 13.4598 6.25593 13.2511C6.25892 13.0423 6.33852 12.8624 6.49475 12.7113ZM6.57248 7.2748C6.72871 7.12297 6.91121 7.04855 7.11997 7.05153C7.32873 7.05452 7.50866 7.13412 7.65977 7.29035L11.9468 11.7017L16.3581 7.41471C16.5143 7.26288 16.6968 7.18846 16.9056 7.19144C17.1144 7.19443 17.2943 7.27403 17.4454 7.43026C17.5972 7.58649 17.6717 7.76899 17.6687 7.97775C17.6657 8.18651 17.5861 8.36644 17.4299 8.51755L12.4671 13.3404C12.3108 13.4922 12.1283 13.5667 11.9196 13.5637C11.7108 13.5607 11.5309 13.4811 11.3798 13.3249L6.55693 8.36209C6.4051 8.20586 6.33068 8.02336 6.33366 7.8146C6.33665 7.60584 6.41625 7.42591 6.57248 7.2748Z"/>
</svg>
