<svg width="24" height="24" viewBox="0 0 24 24" xmlns="http://www.w3.org/2000/svg">
<path d="M21.575 8.29998L13.175 16.725C13.075 16.825 12.9667 16.896 12.85 16.938C12.7333 16.98 12.6083 17.0007 12.475 17C12.3417 17 12.2167 16.979 12.1 16.937C11.9833 16.895 11.875 16.8243 11.775 16.725L3.35 8.29998C3.11667 8.06665 3 7.77498 3 7.42498C3 7.07498 3.125 6.77498 3.375 6.52498C3.625 6.27498 3.91667 6.14999 4.25 6.14999C4.58333 6.14999 4.875 6.27498 5.125 6.52498L12.475 13.875L19.825 6.52498C20.0583 6.29165 20.346 6.17498 20.688 6.17498C21.03 6.17498 21.3257 6.29998 21.575 6.54998C21.825 6.79998 21.95 7.09165 21.95 7.42498C21.95 7.75832 21.825 8.04998 21.575 8.29998Z"/>
</svg>
