<svg width="24" height="24" viewBox="0 0 24 24" xmlns="http://www.w3.org/2000/svg">
<path d="M11.2887 6.49475C11.4406 6.65098 11.515 6.83348 11.512 7.04224C11.509 7.251 11.4294 7.43093 11.2732 7.58204L6.86184 11.869L11.1488 16.2804C11.3007 16.4366 11.3751 16.6191 11.3721 16.8279C11.3691 17.0366 11.2895 17.2166 11.1333 17.3677C10.977 17.5195 10.7945 17.5939 10.5858 17.5909C10.377 17.588 10.1971 17.5084 10.046 17.3521L5.22313 12.3894C5.0713 12.2331 4.99687 12.0506 4.99986 11.8419C5.00284 11.6331 5.08245 11.4532 5.23867 11.3021L10.2014 6.4792C10.3577 6.32737 10.5402 6.25295 10.7489 6.25593C10.9577 6.25892 11.1376 6.33852 11.2887 6.49475ZM16.7252 6.57248C16.877 6.72871 16.9515 6.91121 16.9485 7.11997C16.9455 7.32873 16.8659 7.50866 16.7097 7.65977L12.2983 11.9468L16.5853 16.3581C16.7371 16.5143 16.8115 16.6968 16.8086 16.9056C16.8056 17.1144 16.726 17.2943 16.5697 17.4454C16.4135 17.5972 16.231 17.6717 16.0223 17.6687C15.8135 17.6657 15.6336 17.5861 15.4825 17.4299L10.6596 12.4671C10.5078 12.3108 10.4333 12.1284 10.4363 11.9196C10.4393 11.7108 10.5189 11.5309 10.6751 11.3798L15.6379 6.55693C15.7941 6.4051 15.9766 6.33068 16.1854 6.33366C16.3942 6.33665 16.5741 6.41625 16.7252 6.57248Z"/>
</svg>
