<svg width="24" height="24" viewBox="0 0 24 24" xmlns="http://www.w3.org/2000/svg">
<path d="M17.5053 11.2887C17.349 11.4406 17.1665 11.515 16.9578 11.512C16.749 11.509 16.5691 11.4294 16.418 11.2732L12.131 6.86184L7.71962 11.1488C7.56338 11.3007 7.38089 11.3751 7.17213 11.3721C6.96337 11.3691 6.78343 11.2895 6.63233 11.1333C6.4805 10.977 6.40607 10.7945 6.40906 10.5858C6.41204 10.377 6.49165 10.1971 6.64787 10.046L11.6106 5.22313C11.7669 5.0713 11.9494 4.99687 12.1581 4.99986C12.3669 5.00284 12.5468 5.08245 12.6979 5.23867L17.5208 10.2014C17.6726 10.3577 17.7471 10.5402 17.7441 10.7489C17.7411 10.9577 17.6615 11.1376 17.5053 11.2887ZM17.4275 16.7252C17.2713 16.877 17.0888 16.9515 16.88 16.9485C16.6713 16.9455 16.4913 16.8659 16.3402 16.7097L12.0532 12.2983L7.64189 16.5853C7.48566 16.7371 7.30316 16.8115 7.0944 16.8086C6.88564 16.8056 6.70571 16.726 6.5546 16.5697C6.40277 16.4135 6.32835 16.231 6.33133 16.0223C6.33432 15.8135 6.41392 15.6336 6.57015 15.4825L11.5329 10.6596C11.6892 10.5078 11.8716 10.4333 12.0804 10.4363C12.2892 10.4393 12.4691 10.5189 12.6202 10.6751L17.4431 15.6379C17.5949 15.7941 17.6693 15.9766 17.6663 16.1854C17.6634 16.3942 17.5837 16.5741 17.4275 16.7252Z"/>
</svg>
