<svg width="24" height="24" viewBox="0 0 24 24" xmlns="http://www.w3.org/2000/svg">
<path d="M15.7 21.575L7.27502 13.175C7.17502 13.075 7.10402 12.9667 7.06202 12.85C7.02002 12.7333 6.99935 12.6083 7.00002 12.475C7.00002 12.3417 7.02102 12.2167 7.06302 12.1C7.10502 11.9833 7.17568 11.875 7.27502 11.775L15.7 3.35C15.9333 3.11667 16.225 3 16.575 3C16.925 3 17.225 3.125 17.475 3.375C17.725 3.625 17.85 3.91667 17.85 4.25C17.85 4.58333 17.725 4.875 17.475 5.125L10.125 12.475L17.475 19.825C17.7083 20.0583 17.825 20.346 17.825 20.688C17.825 21.03 17.7 21.3257 17.45 21.575C17.2 21.825 16.9083 21.95 16.575 21.95C16.2417 21.95 15.95 21.825 15.7 21.575Z"/>
</svg>
