<svg width="20" height="20" viewBox="0 0 20 20" xmlns="http://www.w3.org/2000/svg">
<path d="M2.50625 14.1975C2.50792 14.2575 2.52542 14.3142 2.54125 14.3717C2.55375 14.42 2.55959 14.4692 2.58042 14.5133C2.59959 14.5567 2.63209 14.5917 2.66042 14.6317C2.69542 14.6825 2.72709 14.7333 2.77209 14.775C2.77959 14.7825 2.78292 14.7925 2.79125 14.7992C2.82125 14.825 2.85792 14.8342 2.89042 14.855C2.94042 14.8875 2.98959 14.9208 3.04625 14.9425C3.10209 14.9625 3.15709 14.9675 3.21459 14.9758C3.25459 14.9817 3.29042 15 3.33292 15L7.49959 15C7.96042 15 8.33292 14.6267 8.33292 14.1667C8.33292 13.7067 7.96042 13.3333 7.49959 13.3333L5.14459 13.3333L8.50792 9.41L12.0713 11.5475C12.4238 11.7608 12.8771 11.6825 13.1404 11.3667L17.3071 6.36667C17.6013 6.01333 17.5538 5.4875 17.2004 5.19333C17.0438 5.06333 16.8554 5 16.6671 5C16.4279 5 16.1913 5.10167 16.0263 5.3L12.3163 9.75167L8.76209 7.61833C8.41292 7.40917 7.96459 7.4825 7.70042 7.79083L4.16625 11.9142L4.16625 10C4.16625 9.54 3.79375 9.16667 3.33292 9.16667C2.87209 9.16667 2.49959 9.54 2.49959 10L2.49959 14.1667C2.49959 14.1775 2.50542 14.1867 2.50625 14.1975Z"/>
</svg>
