<?xml version="1.0" encoding="utf-8"?>
<!-- Generator: Adobe Illustrator 26.4.1, SVG Export Plug-In . SVG Version: 6.00 Build 0)  -->
<svg version="1.1" id="Layer_1" xmlns="http://www.w3.org/2000/svg" xmlns:xlink="http://www.w3.org/1999/xlink" x="0px" y="0px"
	 viewBox="0 0 24 24" style="enable-background:new 0 0 24 24;" xml:space="preserve">
<path d="M14.8,9.2C14.1,8.4,13.1,8,12,8c-0.8,0-1.5,0.2-2.2,0.7c-0.6,0.4-1.2,1.1-1.5,1.8C8,11.2,8,12,8.1,12.8
	c0.2,0.8,0.5,1.5,1.1,2s1.3,0.9,2,1.1c0.8,0.1,1.6,0.1,2.3-0.2c0.7-0.3,1.3-0.8,1.8-1.5c0.4-0.7,0.7-1.4,0.7-2.2
	C16,10.9,15.6,9.9,14.8,9.2z M13.4,13.4C13,13.8,12.5,14,12,14c-0.4,0-0.8-0.1-1.1-0.4c-0.3-0.2-0.6-0.5-0.8-0.9
	C10,12.4,9.9,12,10,11.6c0.1-0.4,0.3-0.8,0.6-1c0.3-0.3,0.6-0.5,1-0.6c0.4-0.1,0.8,0,1.2,0.1c0.4,0.2,0.7,0.4,0.9,0.8
	c0.2,0.3,0.4,0.7,0.4,1.1C14,12.5,13.8,13,13.4,13.4z M14.8,9.2C14.1,8.4,13.1,8,12,8c-0.8,0-1.5,0.2-2.2,0.7
	c-0.6,0.4-1.2,1.1-1.5,1.8C8,11.2,8,12,8.1,12.8c0.2,0.8,0.5,1.5,1.1,2s1.3,0.9,2,1.1c0.8,0.1,1.6,0.1,2.3-0.2
	c0.7-0.3,1.3-0.8,1.8-1.5c0.4-0.7,0.7-1.4,0.7-2.2C16,10.9,15.6,9.9,14.8,9.2z M13.4,13.4C13,13.8,12.5,14,12,14
	c-0.4,0-0.8-0.1-1.1-0.4c-0.3-0.2-0.6-0.5-0.8-0.9C10,12.4,9.9,12,10,11.6c0.1-0.4,0.3-0.8,0.6-1c0.3-0.3,0.6-0.5,1-0.6
	c0.4-0.1,0.8,0,1.2,0.1c0.4,0.2,0.7,0.4,0.9,0.8c0.2,0.3,0.4,0.7,0.4,1.1C14,12.5,13.8,13,13.4,13.4z M14.8,9.2
	C14.1,8.4,13.1,8,12,8c-0.8,0-1.5,0.2-2.2,0.7c-0.6,0.4-1.2,1.1-1.5,1.8C8,11.2,8,12,8.1,12.8c0.2,0.8,0.5,1.5,1.1,2s1.3,0.9,2,1.1
	c0.8,0.1,1.6,0.1,2.3-0.2c0.7-0.3,1.3-0.8,1.8-1.5c0.4-0.7,0.7-1.4,0.7-2.2C16,10.9,15.6,9.9,14.8,9.2z M13.4,13.4
	C13,13.8,12.5,14,12,14c-0.4,0-0.8-0.1-1.1-0.4c-0.3-0.2-0.6-0.5-0.8-0.9C10,12.4,9.9,12,10,11.6c0.1-0.4,0.3-0.8,0.6-1
	c0.3-0.3,0.6-0.5,1-0.6c0.4-0.1,0.8,0,1.2,0.1c0.4,0.2,0.7,0.4,0.9,0.8c0.2,0.3,0.4,0.7,0.4,1.1C14,12.5,13.8,13,13.4,13.4z
	 M14.8,9.2C14.1,8.4,13.1,8,12,8c-0.8,0-1.5,0.2-2.2,0.7c-0.6,0.4-1.2,1.1-1.5,1.8C8,11.2,8,12,8.1,12.8c0.2,0.8,0.5,1.5,1.1,2
	s1.3,0.9,2,1.1c0.8,0.1,1.6,0.1,2.3-0.2c0.7-0.3,1.3-0.8,1.8-1.5c0.4-0.7,0.7-1.4,0.7-2.2C16,10.9,15.6,9.9,14.8,9.2z M13.4,13.4
	C13,13.8,12.5,14,12,14c-0.4,0-0.8-0.1-1.1-0.4c-0.3-0.2-0.6-0.5-0.8-0.9C10,12.4,9.9,12,10,11.6c0.1-0.4,0.3-0.8,0.6-1
	c0.3-0.3,0.6-0.5,1-0.6c0.4-0.1,0.8,0,1.2,0.1c0.4,0.2,0.7,0.4,0.9,0.8c0.2,0.3,0.4,0.7,0.4,1.1C14,12.5,13.8,13,13.4,13.4z
	 M14.8,9.2C14.1,8.4,13.1,8,12,8c-0.8,0-1.5,0.2-2.2,0.7c-0.6,0.4-1.2,1.1-1.5,1.8C8,11.2,8,12,8.1,12.8c0.2,0.8,0.5,1.5,1.1,2
	s1.3,0.9,2,1.1c0.8,0.1,1.6,0.1,2.3-0.2c0.7-0.3,1.3-0.8,1.8-1.5c0.4-0.7,0.7-1.4,0.7-2.2C16,10.9,15.6,9.9,14.8,9.2z M13.4,13.4
	C13,13.8,12.5,14,12,14c-0.4,0-0.8-0.1-1.1-0.4c-0.3-0.2-0.6-0.5-0.8-0.9C10,12.4,9.9,12,10,11.6c0.1-0.4,0.3-0.8,0.6-1
	c0.3-0.3,0.6-0.5,1-0.6c0.4-0.1,0.8,0,1.2,0.1c0.4,0.2,0.7,0.4,0.9,0.8c0.2,0.3,0.4,0.7,0.4,1.1C14,12.5,13.8,13,13.4,13.4z
	 M14.8,9.2C14.1,8.4,13.1,8,12,8c-0.8,0-1.5,0.2-2.2,0.7c-0.6,0.4-1.2,1.1-1.5,1.8C8,11.2,8,12,8.1,12.8c0.2,0.8,0.5,1.5,1.1,2
	s1.3,0.9,2,1.1c0.8,0.1,1.6,0.1,2.3-0.2c0.7-0.3,1.3-0.8,1.8-1.5c0.4-0.7,0.7-1.4,0.7-2.2C16,10.9,15.6,9.9,14.8,9.2z M13.4,13.4
	C13,13.8,12.5,14,12,14c-0.4,0-0.8-0.1-1.1-0.4c-0.3-0.2-0.6-0.5-0.8-0.9C10,12.4,9.9,12,10,11.6c0.1-0.4,0.3-0.8,0.6-1
	c0.3-0.3,0.6-0.5,1-0.6c0.4-0.1,0.8,0,1.2,0.1c0.4,0.2,0.7,0.4,0.9,0.8c0.2,0.3,0.4,0.7,0.4,1.1C14,12.5,13.8,13,13.4,13.4z
	 M14.8,9.2C14.1,8.4,13.1,8,12,8c-0.8,0-1.5,0.2-2.2,0.7c-0.6,0.4-1.2,1.1-1.5,1.8C8,11.2,8,12,8.1,12.8c0.2,0.8,0.5,1.5,1.1,2
	s1.3,0.9,2,1.1c0.8,0.1,1.6,0.1,2.3-0.2c0.7-0.3,1.3-0.8,1.8-1.5c0.4-0.7,0.7-1.4,0.7-2.2C16,10.9,15.6,9.9,14.8,9.2z M13.4,13.4
	C13,13.8,12.5,14,12,14c-0.4,0-0.8-0.1-1.1-0.4c-0.3-0.2-0.6-0.5-0.8-0.9C10,12.4,9.9,12,10,11.6c0.1-0.4,0.3-0.8,0.6-1
	c0.3-0.3,0.6-0.5,1-0.6c0.4-0.1,0.8,0,1.2,0.1c0.4,0.2,0.7,0.4,0.9,0.8c0.2,0.3,0.4,0.7,0.4,1.1C14,12.5,13.8,13,13.4,13.4z
	 M14.8,9.2C14.1,8.4,13.1,8,12,8c-0.8,0-1.5,0.2-2.2,0.7c-0.6,0.4-1.2,1.1-1.5,1.8C8,11.2,8,12,8.1,12.8c0.2,0.8,0.5,1.5,1.1,2
	s1.3,0.9,2,1.1c0.8,0.1,1.6,0.1,2.3-0.2c0.7-0.3,1.3-0.8,1.8-1.5c0.4-0.7,0.7-1.4,0.7-2.2C16,10.9,15.6,9.9,14.8,9.2z M13.4,13.4
	C13,13.8,12.5,14,12,14c-0.4,0-0.8-0.1-1.1-0.4c-0.3-0.2-0.6-0.5-0.8-0.9C10,12.4,9.9,12,10,11.6c0.1-0.4,0.3-0.8,0.6-1
	c0.3-0.3,0.6-0.5,1-0.6c0.4-0.1,0.8,0,1.2,0.1c0.4,0.2,0.7,0.4,0.9,0.8c0.2,0.3,0.4,0.7,0.4,1.1C14,12.5,13.8,13,13.4,13.4z
	 M23.4,11.6c0-0.1-0.9-1.9-2.6-3.7c-2.4-2.4-5.4-3.7-8.8-3.7S5.6,5.5,3.2,7.9c-1.6,1.6-2.4,3.2-2.6,3.7c-0.1,0.1-0.1,0.3-0.1,0.4
	s0,0.3,0.1,0.4c0.1,0.2,0.9,1.9,2.6,3.7c2.4,2.4,5.4,3.7,8.8,3.7s6.4-1.3,8.8-3.7c1.8-1.8,2.6-3.6,2.6-3.7c0.1-0.1,0.1-0.3,0.1-0.4
	S23.5,11.7,23.4,11.6z M21.4,12.1c-0.5,0.9-1.1,1.8-1.9,2.5l-0.2,0.2c-2,2-4.5,3-7.3,3s-5.3-1-7.3-3c-0.8-0.8-1.5-1.7-2-2.7l0-0.1
	l0-0.1c0.6-1,1.2-1.9,2-2.7c2-2,4.5-3,7.3-3s5.3,1,7.3,3c0.8,0.8,1.5,1.7,2,2.7V12.1L21.4,12.1z M12,8c-0.8,0-1.5,0.2-2.2,0.7
	c-0.6,0.4-1.2,1.1-1.5,1.8C8,11.2,8,12,8.1,12.8c0.2,0.8,0.5,1.5,1.1,2s1.3,0.9,2,1.1c0.8,0.1,1.6,0.1,2.3-0.2
	c0.7-0.3,1.3-0.8,1.8-1.5c0.4-0.7,0.7-1.4,0.7-2.2c0-1.1-0.4-2.1-1.2-2.8S13.1,8,12,8z M13.4,13.4C13,13.8,12.5,14,12,14
	c-0.4,0-0.8-0.1-1.1-0.4c-0.3-0.2-0.6-0.5-0.8-0.9C10,12.4,9.9,12,10,11.6c0.1-0.4,0.3-0.8,0.6-1c0.3-0.3,0.6-0.5,1-0.6
	c0.4-0.1,0.8,0,1.2,0.1c0.4,0.2,0.7,0.4,0.9,0.8c0.2,0.3,0.4,0.7,0.4,1.1C14,12.5,13.8,13,13.4,13.4z M14.8,9.2
	C14.1,8.4,13.1,8,12,8c-0.8,0-1.5,0.2-2.2,0.7c-0.6,0.4-1.2,1.1-1.5,1.8C8,11.2,8,12,8.1,12.8c0.2,0.8,0.5,1.5,1.1,2s1.3,0.9,2,1.1
	c0.8,0.1,1.6,0.1,2.3-0.2c0.7-0.3,1.3-0.8,1.8-1.5c0.4-0.7,0.7-1.4,0.7-2.2C16,10.9,15.6,9.9,14.8,9.2z M13.4,13.4
	C13,13.8,12.5,14,12,14c-0.4,0-0.8-0.1-1.1-0.4c-0.3-0.2-0.6-0.5-0.8-0.9C10,12.4,9.9,12,10,11.6c0.1-0.4,0.3-0.8,0.6-1
	c0.3-0.3,0.6-0.5,1-0.6c0.4-0.1,0.8,0,1.2,0.1c0.4,0.2,0.7,0.4,0.9,0.8c0.2,0.3,0.4,0.7,0.4,1.1C14,12.5,13.8,13,13.4,13.4z
	 M14.8,9.2C14.1,8.4,13.1,8,12,8c-0.8,0-1.5,0.2-2.2,0.7c-0.6,0.4-1.2,1.1-1.5,1.8C8,11.2,8,12,8.1,12.8c0.2,0.8,0.5,1.5,1.1,2
	s1.3,0.9,2,1.1c0.8,0.1,1.6,0.1,2.3-0.2c0.7-0.3,1.3-0.8,1.8-1.5c0.4-0.7,0.7-1.4,0.7-2.2C16,10.9,15.6,9.9,14.8,9.2z M13.4,13.4
	C13,13.8,12.5,14,12,14c-0.4,0-0.8-0.1-1.1-0.4c-0.3-0.2-0.6-0.5-0.8-0.9C10,12.4,9.9,12,10,11.6c0.1-0.4,0.3-0.8,0.6-1
	c0.3-0.3,0.6-0.5,1-0.6c0.4-0.1,0.8,0,1.2,0.1c0.4,0.2,0.7,0.4,0.9,0.8c0.2,0.3,0.4,0.7,0.4,1.1C14,12.5,13.8,13,13.4,13.4z
	 M14.8,9.2C14.1,8.4,13.1,8,12,8c-0.8,0-1.5,0.2-2.2,0.7c-0.6,0.4-1.2,1.1-1.5,1.8C8,11.2,8,12,8.1,12.8c0.2,0.8,0.5,1.5,1.1,2
	s1.3,0.9,2,1.1c0.8,0.1,1.6,0.1,2.3-0.2c0.7-0.3,1.3-0.8,1.8-1.5c0.4-0.7,0.7-1.4,0.7-2.2C16,10.9,15.6,9.9,14.8,9.2z M13.4,13.4
	C13,13.8,12.5,14,12,14c-0.4,0-0.8-0.1-1.1-0.4c-0.3-0.2-0.6-0.5-0.8-0.9C10,12.4,9.9,12,10,11.6c0.1-0.4,0.3-0.8,0.6-1
	c0.3-0.3,0.6-0.5,1-0.6c0.4-0.1,0.8,0,1.2,0.1c0.4,0.2,0.7,0.4,0.9,0.8c0.2,0.3,0.4,0.7,0.4,1.1C14,12.5,13.8,13,13.4,13.4z
	 M14.8,9.2C14.1,8.4,13.1,8,12,8c-0.8,0-1.5,0.2-2.2,0.7c-0.6,0.4-1.2,1.1-1.5,1.8C8,11.2,8,12,8.1,12.8c0.2,0.8,0.5,1.5,1.1,2
	s1.3,0.9,2,1.1c0.8,0.1,1.6,0.1,2.3-0.2c0.7-0.3,1.3-0.8,1.8-1.5c0.4-0.7,0.7-1.4,0.7-2.2C16,10.9,15.6,9.9,14.8,9.2z M13.4,13.4
	C13,13.8,12.5,14,12,14c-0.4,0-0.8-0.1-1.1-0.4c-0.3-0.2-0.6-0.5-0.8-0.9C10,12.4,9.9,12,10,11.6c0.1-0.4,0.3-0.8,0.6-1
	c0.3-0.3,0.6-0.5,1-0.6c0.4-0.1,0.8,0,1.2,0.1c0.4,0.2,0.7,0.4,0.9,0.8c0.2,0.3,0.4,0.7,0.4,1.1C14,12.5,13.8,13,13.4,13.4z
	 M14.8,9.2C14.1,8.4,13.1,8,12,8c-0.8,0-1.5,0.2-2.2,0.7c-0.6,0.4-1.2,1.1-1.5,1.8C8,11.2,8,12,8.1,12.8c0.2,0.8,0.5,1.5,1.1,2
	s1.3,0.9,2,1.1c0.8,0.1,1.6,0.1,2.3-0.2c0.7-0.3,1.3-0.8,1.8-1.5c0.4-0.7,0.7-1.4,0.7-2.2C16,10.9,15.6,9.9,14.8,9.2z M13.4,13.4
	C13,13.8,12.5,14,12,14c-0.4,0-0.8-0.1-1.1-0.4c-0.3-0.2-0.6-0.5-0.8-0.9C10,12.4,9.9,12,10,11.6c0.1-0.4,0.3-0.8,0.6-1
	c0.3-0.3,0.6-0.5,1-0.6c0.4-0.1,0.8,0,1.2,0.1c0.4,0.2,0.7,0.4,0.9,0.8c0.2,0.3,0.4,0.7,0.4,1.1C14,12.5,13.8,13,13.4,13.4z
	 M14.8,9.2C14.1,8.4,13.1,8,12,8c-0.8,0-1.5,0.2-2.2,0.7c-0.6,0.4-1.2,1.1-1.5,1.8C8,11.2,8,12,8.1,12.8c0.2,0.8,0.5,1.5,1.1,2
	s1.3,0.9,2,1.1c0.8,0.1,1.6,0.1,2.3-0.2c0.7-0.3,1.3-0.8,1.8-1.5c0.4-0.7,0.7-1.4,0.7-2.2C16,10.9,15.6,9.9,14.8,9.2z M13.4,13.4
	C13,13.8,12.5,14,12,14c-0.4,0-0.8-0.1-1.1-0.4c-0.3-0.2-0.6-0.5-0.8-0.9C10,12.4,9.9,12,10,11.6c0.1-0.4,0.3-0.8,0.6-1
	c0.3-0.3,0.6-0.5,1-0.6c0.4-0.1,0.8,0,1.2,0.1c0.4,0.2,0.7,0.4,0.9,0.8c0.2,0.3,0.4,0.7,0.4,1.1C14,12.5,13.8,13,13.4,13.4z
	 M14.8,9.2C14.1,8.4,13.1,8,12,8c-0.8,0-1.5,0.2-2.2,0.7c-0.6,0.4-1.2,1.1-1.5,1.8C8,11.2,8,12,8.1,12.8c0.2,0.8,0.5,1.5,1.1,2
	s1.3,0.9,2,1.1c0.8,0.1,1.6,0.1,2.3-0.2c0.7-0.3,1.3-0.8,1.8-1.5c0.4-0.7,0.7-1.4,0.7-2.2C16,10.9,15.6,9.9,14.8,9.2z M13.4,13.4
	C13,13.8,12.5,14,12,14c-0.4,0-0.8-0.1-1.1-0.4c-0.3-0.2-0.6-0.5-0.8-0.9C10,12.4,9.9,12,10,11.6c0.1-0.4,0.3-0.8,0.6-1
	c0.3-0.3,0.6-0.5,1-0.6c0.4-0.1,0.8,0,1.2,0.1c0.4,0.2,0.7,0.4,0.9,0.8c0.2,0.3,0.4,0.7,0.4,1.1C14,12.5,13.8,13,13.4,13.4z
	 M14.8,9.2C14.1,8.4,13.1,8,12,8c-0.8,0-1.5,0.2-2.2,0.7c-0.6,0.4-1.2,1.1-1.5,1.8C8,11.2,8,12,8.1,12.8c0.2,0.8,0.5,1.5,1.1,2
	s1.3,0.9,2,1.1c0.8,0.1,1.6,0.1,2.3-0.2c0.7-0.3,1.3-0.8,1.8-1.5c0.4-0.7,0.7-1.4,0.7-2.2C16,10.9,15.6,9.9,14.8,9.2z M13.4,13.4
	C13,13.8,12.5,14,12,14c-0.4,0-0.8-0.1-1.1-0.4c-0.3-0.2-0.6-0.5-0.8-0.9C10,12.4,9.9,12,10,11.6c0.1-0.4,0.3-0.8,0.6-1
	c0.3-0.3,0.6-0.5,1-0.6c0.4-0.1,0.8,0,1.2,0.1c0.4,0.2,0.7,0.4,0.9,0.8c0.2,0.3,0.4,0.7,0.4,1.1C14,12.5,13.8,13,13.4,13.4z"/>
</svg>
