<?xml version="1.0" encoding="utf-8"?>
<!-- Generator: Adobe Illustrator 26.4.1, SVG Export Plug-In . SVG Version: 6.00 Build 0)  -->
<svg version="1.1" id="Layer_1" xmlns="http://www.w3.org/2000/svg" xmlns:xlink="http://www.w3.org/1999/xlink" x="0px" y="0px"
	 viewBox="0 0 24 24" style="enable-background:new 0 0 24 24;" xml:space="preserve">
<path d="M12,21.9c-5.5,0-9.9-4.4-9.9-9.9S6.5,2.1,12,2.1s9.9,4.4,9.9,9.9S17.5,21.9,12,21.9z M9.9,12.9
	c0.2,4.7,1.5,7.2,2.1,7.2s1.9-2.5,2.1-7.2H9.9z M15.9,12.9c-0.1,2.5-0.5,5-1.3,6.8c2.9-1,5.1-3.6,5.5-6.8H15.9z M3.9,12.9
	c0.4,3.2,2.5,5.8,5.5,6.8c-0.8-1.7-1.2-4.3-1.3-6.8H3.9z M15.9,11.1h4.2c-0.4-3.2-2.5-5.8-5.5-6.8C15.4,6.1,15.8,8.6,15.9,11.1z
	 M9.9,11.1h4.2c-0.2-4.7-1.5-7.2-2.1-7.2S10.1,6.4,9.9,11.1z M3.9,11.1h4.2c0.1-2.5,0.5-5,1.3-6.8C6.5,5.3,4.3,7.9,3.9,11.1z"/>
</svg>
