<?xml version="1.0" encoding="utf-8"?>
<!-- Generator: Adobe Illustrator 26.4.1, SVG Export Plug-In . SVG Version: 6.00 Build 0)  -->
<svg version="1.1" id="Layer_1" xmlns="http://www.w3.org/2000/svg" xmlns:xlink="http://www.w3.org/1999/xlink" x="0px" y="0px"
	 viewBox="0 0 24 24" style="enable-background:new 0 0 24 24;" xml:space="preserve">
<path d="M12,22.8C6,22.8,1.2,18,1.2,12S6,1.2,12,1.2S22.8,6,22.8,12S18,22.8,12,22.8z M12,2.8c-5.1,0-9.2,4.1-9.2,9.2
	c0,5.1,4.1,9.2,9.2,9.2c5.1,0,9.2-4.1,9.2-9.2C21.2,6.9,17.1,2.8,12,2.8z"/>
<path d="M12,18.8c-0.2,0-0.4-0.1-0.5-0.2c-0.3-0.3-0.4-0.8-0.1-1.1l0,0c0.3-0.3,0.8-0.4,1.1-0.1
	c0.3,0.3,0.4,0.8,0.1,1.1C12.4,18.7,12.2,18.8,12,18.8z M12,14.8c-0.4,0-0.8-0.4-0.8-0.8c0-1.9,0.9-2.8,1.6-3.4
	c0.6-0.5,0.9-0.8,0.9-1.6c0-0.6-0.2-1-0.6-1.4c-0.3-0.3-0.8-0.5-1.4-0.5c-0.7,0-2,0.4-2,1.8c0,0.4-0.4,0.8-0.8,0.8S8.2,9.4,8.2,9
	c0-2.2,1.8-3.4,3.5-3.4c1.8,0,3.5,1.2,3.5,3.4c0,1.6-0.8,2.3-1.4,2.8c-0.6,0.6-1.1,1-1.1,2.2C12.8,14.4,12.4,14.8,12,14.8z"/>
</svg>
