<?xml version="1.0" encoding="utf-8"?>
<!-- Generator: Adobe Illustrator 26.4.1, SVG Export Plug-In . SVG Version: 6.00 Build 0)  -->
<svg version="1.1" id="Layer_1" xmlns="http://www.w3.org/2000/svg" xmlns:xlink="http://www.w3.org/1999/xlink" x="0px" y="0px"
	 viewBox="0 0 24 24" style="enable-background:new 0 0 24 24;" xml:space="preserve">
<path d="M12,2.8C12,2.8,12,2.8,12,2.8c-2.2,0-4.2,0.7-5.9,2.1V4.1c0-0.3-0.1-0.5-0.3-0.7C5.5,3,4.8,3,4.4,3.4
	C4.2,3.6,4.1,3.9,4.1,4.1v3.2c0,0.3,0.1,0.5,0.3,0.7s0.4,0.3,0.7,0.3h3.2c0.3,0,0.5-0.1,0.7-0.3s0.3-0.4,0.3-0.7S9.3,6.9,9.1,6.7
	S8.6,6.4,8.4,6.4h-1c1.3-1.1,2.9-1.6,4.6-1.6c0,0,0,0,0,0c4,0,7.2,3.3,7.2,7.2c0,4-3.3,7.2-7.2,7.2c-4,0-7.2-3.3-7.2-7.2
	c0-0.2,0-0.5,0-0.7c0-0.3-0.1-0.6-0.3-0.8c-0.2-0.2-0.4-0.3-0.7-0.3c-0.6,0-1,0.4-1.1,1c0,0.3,0,0.5,0,0.8c0,5.1,4.1,9.2,9.2,9.2
	s9.2-4.1,9.2-9.2S17.1,2.8,12,2.8z"/>
<path d="M12.5,7c-0.4-0.4-1-0.4-1.4,0c-0.2,0.2-0.3,0.4-0.3,0.7v5c0,0.3,0.1,0.5,0.3,0.7s0.4,0.3,0.7,0.3h2.5
	c0.3,0,0.5-0.1,0.7-0.3c0.2-0.2,0.3-0.4,0.3-0.7c0-0.3-0.1-0.5-0.3-0.7c-0.2-0.2-0.4-0.3-0.7-0.3h-1.5v-4C12.8,7.5,12.6,7.2,12.5,7z
	"/>
</svg>
