<?xml version="1.0" encoding="utf-8"?>
<!-- Generator: Adobe Illustrator 26.4.1, SVG Export Plug-In . SVG Version: 6.00 Build 0)  -->
<svg version="1.1" id="Layer_1" xmlns="http://www.w3.org/2000/svg" xmlns:xlink="http://www.w3.org/1999/xlink" x="0px" y="0px"
	 viewBox="0 0 24 24" style="enable-background:new 0 0 24 24;" xml:space="preserve">
<path d="M13,22.9h-2c-4,0-6,0-7.5-1.4C2.1,20,2.1,18,2.1,14v-4c0-4,0-6,1.4-7.5C5,1.1,7,1.1,11,1.1h2c4,0,6,0,7.5,1.4
	C21.9,4,21.9,6,21.9,10v4c0,4,0,6-1.4,7.5C19,22.9,17,22.9,13,22.9z M11,2.9c-3.5,0-5.3,0-6.2,0.9C3.9,4.7,3.9,6.5,3.9,10v4
	c0,3.5,0,5.3,0.9,6.2c0.9,0.9,2.7,0.9,6.2,0.9h2c3.5,0,5.3,0,6.2-0.9c0.9-0.9,0.9-2.7,0.9-6.2v-4c0-3.5,0-5.3-0.9-6.2
	c-0.9-0.9-2.7-0.9-6.2-0.9H11z"/>
<path d="M13,14.9H8c-0.5,0-0.9-0.4-0.9-0.9s0.4-0.9,0.9-0.9h5c0.5,0,0.9,0.4,0.9,0.9S13.5,14.9,13,14.9z M16,10.9H8
	c-0.5,0-0.9-0.4-0.9-0.9S7.5,9.1,8,9.1h8c0.5,0,0.9,0.4,0.9,0.9S16.5,10.9,16,10.9z"/>
</svg>
