<?xml version="1.0" encoding="utf-8"?>
<!-- Generator: Adobe Illustrator 26.4.1, SVG Export Plug-In . SVG Version: 6.00 Build 0)  -->
<svg version="1.1" id="Layer_1" xmlns="http://www.w3.org/2000/svg" xmlns:xlink="http://www.w3.org/1999/xlink" x="0px" y="0px"
	 viewBox="0 0 24 24" style="enable-background:new 0 0 24 24;" xml:space="preserve">
<path d="M14.9,8.6c-0.1-1.1-0.5-1.8-1.1-2.4c-0.6-0.6-1.3-0.9-2.4-1.1C10.5,5,9.4,5,8.1,5H7.9C6.6,5,5.5,5,4.6,5.1
	C3.5,5.3,2.8,5.6,2.2,6.2C1.6,6.8,1.3,7.5,1.1,8.6C1,9.5,1,10.6,1,11.9v0.1c0,1.4,0,2.5,0.1,3.4c0.1,1.1,0.5,1.8,1.1,2.4
	c0.6,0.6,1.3,0.9,2.4,1.1C5.5,19,6.6,19,8,19c0.3,0,0.5-0.1,0.7-0.3C8.9,18.5,9,18.3,9,18s-0.1-0.5-0.3-0.7C8.5,17.1,8.3,17,8,17
	c-1.3,0-2.4,0-3.2-0.1c-0.8-0.1-1.1-0.3-1.3-0.5c-0.2-0.2-0.4-0.5-0.5-1.3C3,14.4,3,13.3,3,12c0-1.3,0-2.4,0.1-3.2
	c0.1-0.8,0.3-1.1,0.5-1.3s0.5-0.4,1.3-0.5C5.6,7,6.7,7,8,7c1.3,0,2.4,0,3.2,0.1c0.8,0.1,1.1,0.3,1.3,0.5c0.2,0.2,0.4,0.5,0.5,1.3
	C13,9.6,13,10.7,13,12c0,0.3,0.1,0.5,0.3,0.7c0.4,0.4,1,0.4,1.4,0c0.2-0.2,0.3-0.4,0.3-0.8C15,10.6,15,9.5,14.9,8.6z"/>
<path d="M22.9,8.6c-0.1-1.1-0.5-1.8-1.1-2.4c-0.6-0.6-1.3-0.9-2.4-1.1C18.5,5,17.4,5,16,5c-0.3,0-0.5,0.1-0.7,0.3
	C15.1,5.5,15,5.7,15,6s0.1,0.5,0.3,0.7C15.5,6.9,15.7,7,16,7c1.3,0,2.4,0,3.2,0.1c0.8,0.1,1.1,0.3,1.3,0.5s0.4,0.5,0.5,1.3
	C21,9.6,21,10.7,21,12c0,1.3,0,2.4-0.1,3.2c-0.1,0.8-0.3,1.1-0.5,1.3c-0.2,0.2-0.5,0.4-1.3,0.5C18.4,17,17.3,17,16,17
	s-2.4,0-3.2-0.1c-0.8-0.1-1.1-0.3-1.3-0.5c-0.2-0.2-0.4-0.5-0.5-1.3C11,14.4,11,13.3,11,12c0-0.3-0.1-0.5-0.3-0.7
	c-0.4-0.4-1-0.4-1.4,0C9.1,11.5,9,11.7,9,12.1c0,1.4,0,2.5,0.1,3.4c0.1,1.1,0.5,1.8,1.1,2.4c0.6,0.6,1.3,0.9,2.4,1.1
	c0.9,0.1,2,0.1,3.4,0.1h0.1c1.4,0,2.5,0,3.4-0.1c1.1-0.1,1.8-0.5,2.4-1.1c0.6-0.6,0.9-1.3,1.1-2.4c0.1-0.9,0.1-2,0.1-3.4v-0.1
	C23,10.6,23,9.5,22.9,8.6z"/>
</svg>
