<?xml version="1.0" encoding="utf-8"?>
<!-- Generator: Adobe Illustrator 26.4.1, SVG Export Plug-In . SVG Version: 6.00 Build 0)  -->
<svg version="1.1" id="Layer_1" xmlns="http://www.w3.org/2000/svg" xmlns:xlink="http://www.w3.org/1999/xlink" x="0px" y="0px"
	 viewBox="0 0 24 24" style="enable-background:new 0 0 24 24;" xml:space="preserve">
<path d="M10,22H8.8C7,22,6,22,5.2,21.6c-0.8-0.4-1.4-1-1.7-1.7C3,19,3,18,3,16.2V7.8C3,6,3,5,3.4,4.2
	c0.4-0.8,1-1.4,1.7-1.7C6,2,7,2,8.8,2H10c0.6,0,1,0.4,1,1s-0.4,1-1,1H8.8C7.3,4,6.5,4,6.1,4.2C5.7,4.4,5.4,4.7,5.2,5.1
	C5,5.5,5,6.3,5,7.8v8.4c0,1.5,0,2.3,0.2,2.7c0.2,0.4,0.5,0.7,0.9,0.9C6.5,20,7.3,20,8.8,20H10c0.6,0,1,0.4,1,1S10.6,22,10,22z
	 M17,18c-0.3,0-0.5-0.1-0.7-0.3c-0.4-0.4-0.4-1,0-1.4l3.3-3.3H10c-0.6,0-1-0.4-1-1s0.4-1,1-1h9.6l-3.3-3.3c-0.4-0.4-0.4-1,0-1.4
	s1-0.4,1.4,0l5,5c0.1,0.1,0.2,0.2,0.2,0.3c0,0.1,0.1,0.2,0.1,0.4l0,0c0,0,0,0,0,0l0,0c0,0.1,0,0.3-0.1,0.4c0,0.1-0.1,0.2-0.2,0.3
	l-5,5C17.5,17.9,17.3,18,17,18z"/>
</svg>
