<?xml version="1.0" encoding="utf-8"?>
<!-- Generator: Adobe Illustrator 26.4.1, SVG Export Plug-In . SVG Version: 6.00 Build 0)  -->
<svg version="1.1" id="Layer_1" xmlns="http://www.w3.org/2000/svg" xmlns:xlink="http://www.w3.org/1999/xlink" x="0px" y="0px"
	 viewBox="0 0 24 24" style="enable-background:new 0 0 24 24;" xml:space="preserve">
<path d="M13,11h5c0.3,0,0.5,0.1,0.7,0.3c0.2,0.2,0.3,0.4,0.3,0.7c0,0.3-0.1,0.5-0.3,0.7C18.5,12.9,18.3,13,18,13h-5l-0.5,0h-0.3H12
	l-0.2,0l-0.6,0L11,13H6c-0.3,0-0.5-0.1-0.7-0.3C5.1,12.5,5,12.3,5,12c0-0.3,0.1-0.5,0.3-0.7C5.5,11.1,5.7,11,6,11h5"/>
</svg>
