<?xml version="1.0" encoding="utf-8"?>
<!-- Generator: Adobe Illustrator 26.4.1, SVG Export Plug-In . SVG Version: 6.00 Build 0)  -->
<svg version="1.1" id="Layer_1" xmlns="http://www.w3.org/2000/svg" xmlns:xlink="http://www.w3.org/1999/xlink" x="0px" y="0px"
	 viewBox="0 0 24 24" style="enable-background:new 0 0 24 24;" xml:space="preserve">
<path d="M22.3,13.6c0-0.2-0.1-0.3-0.3-0.5l0,0c-0.1-0.1-0.3-0.2-0.5-0.3c-0.2,0-0.4,0-0.5,0c-1.4,0.4-2.9,0.5-4.3,0.1
	c-1.4-0.4-2.7-1.1-3.7-2.1c-1-1-1.8-2.3-2.1-3.7c-0.4-1.4-0.3-2.9,0.1-4.3c0.1-0.2,0.1-0.4,0-0.5c0-0.2-0.1-0.3-0.3-0.5
	c-0.1-0.1-0.3-0.2-0.5-0.3c-0.2,0-0.4,0-0.5,0C7.8,2.3,6,3.5,4.8,5.2c-1.1,1.5-1.8,3.3-2,5.1c-0.2,1.9,0.2,3.7,1,5.4
	c0.8,1.7,2.1,3.1,3.7,4c1.6,1,3.4,1.5,5.3,1.5c0,0,0,0,0,0c2.1,0,4.3-0.7,6-2c1.7-1.3,2.9-3,3.6-5.1C22.4,14,22.4,13.8,22.3,13.6z
	 M11.7,12.3c1.9,1.9,4.4,2.9,7.1,2.9c0.3,0,0.6,0,1,0c-0.5,0.9-1.3,1.8-2.1,2.4c-1.5,1.2-3.4,1.7-5.4,1.6c-1.9-0.1-3.7-1-5.1-2.3
	c-1.4-1.4-2.2-3.2-2.3-5.1C4.6,9.9,5.2,8,6.4,6.4C7,5.6,7.8,4.8,8.8,4.3c0,0.3,0,0.6,0,1C8.8,7.9,9.8,10.4,11.7,12.3z"/>
</svg>
