<?xml version="1.0" encoding="utf-8"?>
<!-- Generator: Adobe Illustrator 26.4.1, SVG Export Plug-In . SVG Version: 6.00 Build 0)  -->
<svg version="1.1" id="Layer_1" xmlns="http://www.w3.org/2000/svg" xmlns:xlink="http://www.w3.org/1999/xlink" x="0px" y="0px"
	 viewBox="0 0 24 24" style="enable-background:new 0 0 24 24;" xml:space="preserve">
<path d="M23.3,9.3c-0.1-0.4-0.3-0.7-0.6-0.9c-0.3-0.2-0.6-0.4-1-0.5L16.3,7l-2.5-4.8c-0.2-0.3-0.4-0.6-0.8-0.8
	c-0.6-0.4-1.5-0.4-2.1,0c-0.3,0.2-0.6,0.5-0.8,0.8L7.7,7L2.3,7.9C2,7.9,1.6,8.1,1.3,8.3C1,8.6,0.8,8.9,0.7,9.3
	c-0.1,0.4-0.1,0.7,0,1.1s0.3,0.7,0.5,1L5,15.2l-0.8,5.4c-0.1,0.4,0,0.8,0.1,1.1C4.5,22,4.7,22.3,5,22.5s0.7,0.4,1,0.4
	c0.1,0,0.1,0,0.2,0c0.3,0,0.6-0.1,0.9-0.2l4.8-2.4l4.8,2.4c0.3,0.2,0.7,0.2,1.1,0.2c0.4,0,0.7-0.2,1-0.4s0.5-0.5,0.7-0.9
	s0.2-0.7,0.1-1.1L19,15.2l3.8-3.9c0.3-0.3,0.5-0.6,0.5-1C23.4,10,23.4,9.6,23.3,9.3z M18,20.8c0,0,0,0.1,0,0.1c0,0,0,0.1-0.1,0.1
	s-0.1,0-0.1,0c0,0-0.1,0-0.1,0L12,18.3l-5.7,2.9c0,0-0.1,0-0.1,0c0,0-0.1,0-0.1,0C6,21.1,6,21,6,21s0-0.1,0-0.1l1-6.3l-4.5-4.5
	c0,0-0.1-0.1-0.1-0.1c0,0,0-0.1,0-0.1c0,0,0-0.1,0.1-0.1c0,0,0.1-0.1,0.1-0.1l6.3-1L11.8,3c0,0,0.1-0.1,0.1-0.1c0.1,0,0.2,0,0.3,0
	c0,0,0.1,0.1,0.1,0.1l2.9,5.6l0,0.1l6.3,1c0,0,0.1,0,0.1,0.1c0,0,0.1,0.1,0.1,0.1c0,0,0,0.1,0,0.1c0,0,0,0.1-0.1,0.1l-4.4,4.4
	l-0.1,0.1L18,20.8z"/>
</svg>
