<?xml version="1.0" encoding="utf-8"?>
<!-- Generator: Adobe Illustrator 26.4.1, SVG Export Plug-In . SVG Version: 6.00 Build 0)  -->
<svg version="1.1" id="Layer_1" xmlns="http://www.w3.org/2000/svg" xmlns:xlink="http://www.w3.org/1999/xlink" x="0px" y="0px"
	 viewBox="0 0 24 24" style="enable-background:new 0 0 24 24;" xml:space="preserve">
<path d="M12,22C6.5,22,2,17.5,2,12C2,6.5,6.5,2,12,2c0,0,0,0,0,0c0,0,0,0,0,0c0,0,0,0,0,0c0,0,0,0,0,0c0,0,0,0,0,0
	c0,0,0,0,0,0h0c0,0,0,0,0,0l0,0c0.5,0,1,0,1.5,0.1l0,0c0.8,0.1,1.6,0.3,2.3,0.6c0,0,0,0,0,0C17,3.3,18.1,4,19.1,4.9
	c0.9,0.9,1.6,1.9,2.1,3c0.3,0.7,0.6,1.5,0.7,2.3l0,0c0,0,0,0,0,0c0.1,0.6,0.2,1.1,0.2,1.7v0c0,0,0,0,0,0c0,0,0,0,0,0c0,0,0,0,0,0
	c0,0,0,0,0,0c0,0,0,0,0,0c0,0,0,0,0,0c0,0,0,0,0,0c0,0,0,0,0,0c0,0,0,0,0,0c0,0,0,0,0,0c0,0,0,0,0,0c0,0,0,0,0,0c0,0,0,0,0,0
	c0,0,0,0,0,0c0,0,0,0,0,0c0,1.4-0.3,2.7-0.8,3.9c-0.1,0.2-0.2,0.4-0.3,0.6c-0.7,1.4-1.8,2.6-3,3.5c0,0,0,0-0.1,0
	C16.2,21.3,14.2,22,12,22z M11,4.1C7.1,4.6,4,7.9,4,12c0,4.4,3.6,8,8,8c1.4,0,2.7-0.4,3.9-1l-4.7-6.4c-0.1-0.1-0.1-0.2-0.1-0.3
	c0-0.1,0-0.2,0-0.3V4.1z M14,13l3.5,4.8c0.8-0.8,1.5-1.7,1.9-2.8c0.3-0.7,0.5-1.4,0.6-2.1H14z M13,11h6.9c0-0.1,0-0.3-0.1-0.4
	c0,0,0,0,0,0c-0.1-0.6-0.3-1.1-0.5-1.6c0-0.1-0.1-0.2-0.1-0.2c-0.8-1.9-2.4-3.3-4.3-4.1c-0.6-0.2-1.2-0.4-1.8-0.5
	c-0.1,0-0.1,0-0.2,0V11z"/>
</svg>
