<?xml version="1.0" encoding="utf-8"?>
<!-- Generator: Adobe Illustrator 26.4.1, SVG Export Plug-In . SVG Version: 6.00 Build 0)  -->
<svg version="1.1" id="Layer_1" xmlns="http://www.w3.org/2000/svg" xmlns:xlink="http://www.w3.org/1999/xlink" x="0px" y="0px"
	 viewBox="0 0 24 24" style="enable-background:new 0 0 24 24;" xml:space="preserve">
<path d="M10.1,21.9c-0.3,0-0.6-0.1-0.9-0.3c-0.2-0.2-0.4-0.5-0.5-0.8l-0.3-2c-0.3-0.1-0.6-0.3-0.9-0.5l-1.8,0.7
	c-0.3,0.1-0.6,0.1-0.9,0c-0.3-0.1-0.6-0.3-0.7-0.6l-1.9-3.1c-0.2-0.3-0.2-0.6-0.2-0.9c0.1-0.3,0.2-0.6,0.5-0.8l1.6-1.2
	c0-0.2,0-0.3,0-0.5c0-0.2,0-0.3,0-0.5l-1.6-1.2c-0.3-0.2-0.4-0.5-0.5-0.8c-0.1-0.3,0-0.6,0.2-0.9l1.9-3.1C4.3,5.2,4.6,5,4.9,4.9
	c0.3-0.1,0.6-0.1,0.9,0l1.9,0.7c0.3-0.2,0.6-0.3,0.9-0.5l0.3-1.9C8.9,2.9,9,2.6,9.3,2.4c0.2-0.2,0.5-0.3,0.9-0.3h3.7
	c0.3,0,0.6,0.1,0.9,0.3c0.2,0.2,0.4,0.5,0.5,0.8l0.3,1.9c0.3,0.1,0.6,0.3,0.9,0.5l1.8-0.7c0.3-0.1,0.6-0.1,0.9,0
	c0.3,0.1,0.6,0.3,0.7,0.6l1.9,3.1c0.2,0.3,0.2,0.6,0.2,0.9c-0.1,0.3-0.2,0.6-0.5,0.8l-1.6,1.2c0,0.2,0,0.3,0,0.5c0,0,0,0,0,0
	c0,0.2,0,0.3,0,0.5l1.6,1.2c0.3,0.2,0.4,0.5,0.5,0.8c0.1,0.3,0,0.7-0.2,0.9l-1.9,3.1c-0.2,0.3-0.4,0.5-0.7,0.6
	c-0.3,0.1-0.6,0.1-0.9,0l-1.9-0.7c-0.3,0.2-0.6,0.3-0.9,0.5l-0.3,1.9c-0.1,0.3-0.2,0.6-0.5,0.8c-0.2,0.2-0.5,0.3-0.9,0.3L10.1,21.9z
	 M7.7,16.6c0.1,0,0.1,0,0.2,0c0.3,0,0.5,0.1,0.7,0.3c0.3,0.2,0.5,0.3,0.8,0.5c0.2,0.1,0.4,0.3,0.6,0.5c0.2,0.2,0.3,0.5,0.3,0.7
	l0.2,1.6l3,0l0.2-1.6c0-0.3,0.1-0.5,0.3-0.7c0.2-0.2,0.4-0.4,0.6-0.5c0.3-0.1,0.6-0.3,0.8-0.5c0.2-0.1,0.5-0.2,0.7-0.3
	c0.3,0,0.5,0,0.8,0.1l1.6,0.6l1.5-2.4l-1.6-1.2c-0.3-0.2-0.4-0.5-0.3-0.8c0-0.2,0.1-0.5,0.1-0.7c0-0.2,0-0.3,0-0.5
	c0-0.2,0-0.5,0.1-0.8c0.1-0.2,0.3-0.5,0.5-0.6l1.3-1l-1.5-2.4l-1.6,0.6c-0.2,0.1-0.5,0.1-0.8,0.1c-0.3,0-0.5-0.1-0.7-0.3
	c-0.3-0.2-0.5-0.3-0.8-0.5c-0.2-0.1-0.4-0.3-0.6-0.5c-0.2-0.2-0.3-0.4-0.3-0.7l-0.2-1.6h-3l-0.2,1.6c0,0.3-0.1,0.5-0.3,0.7
	C9.8,6.4,9.6,6.6,9.4,6.7C9.1,6.9,8.8,7,8.6,7.2C8.4,7.3,8.1,7.4,7.9,7.4c-0.3,0-0.5,0-0.8-0.1L5.5,6.7L4,9.2l1.3,1
	c0.2,0.2,0.4,0.4,0.5,0.6C6,11,6,11.3,6,11.6c0,0.1,0,0.3,0,0.4c0,0.1,0,0.3,0,0.4c0,0.3,0,0.5-0.1,0.8c-0.1,0.2-0.3,0.5-0.5,0.6
	l-1.3,1l1.5,2.4l1.6-0.6C7.3,16.6,7.5,16.6,7.7,16.6z M16.2,18.3L16.2,18.3L16.2,18.3z M3.8,14.5L3.8,14.5
	C3.8,14.5,3.8,14.5,3.8,14.5z M4.2,12.6C4.2,12.6,4.2,12.6,4.2,12.6C4.2,12.6,4.2,12.6,4.2,12.6z M18.9,12L18.9,12L18.9,12z
	 M19.8,11.4C19.8,11.4,19.8,11.4,19.8,11.4C19.8,11.4,19.8,11.4,19.8,11.4z M20.2,9.5C20.2,9.5,20.2,9.5,20.2,9.5L20.2,9.5z
	 M16.4,5.7L16.4,5.7L16.4,5.7z M7.8,5.7L7.8,5.7C7.8,5.7,7.8,5.7,7.8,5.7z M8.6,5.1C8.6,5.1,8.6,5.1,8.6,5.1
	C8.6,5.1,8.6,5.1,8.6,5.1z M15.4,5.1C15.4,5.1,15.4,5.1,15.4,5.1C15.4,5.1,15.4,5.1,15.4,5.1z M12,15.6c-0.2,0-0.4,0-0.6-0.1
	c-0.7-0.1-1.4-0.5-2-1c-0.5-0.5-0.9-1.2-1-1.9c-0.1-0.7,0-1.5,0.3-2.2C9,9.8,9.5,9.2,10.2,8.9c0.7-0.4,1.4-0.5,2.2-0.4c0,0,0,0,0,0
	c0.8,0.1,1.6,0.4,2.2,1c0.6,0.6,1,1.4,1.1,2.2c0.1,0.7-0.1,1.5-0.5,2.1c-0.4,0.6-0.9,1.2-1.6,1.5C13.1,15.5,12.5,15.6,12,15.6z
	 M12,10.2c-0.3,0-0.6,0.1-0.9,0.2c-0.3,0.2-0.6,0.5-0.8,0.8c-0.2,0.3-0.2,0.7-0.1,1.1c0.1,0.4,0.2,0.7,0.5,1c0.3,0.3,0.6,0.4,1,0.5
	c0.4,0.1,0.8,0,1.1-0.1c0.3-0.2,0.6-0.4,0.8-0.7c0.2-0.3,0.3-0.7,0.2-1c0-0.4-0.2-0.8-0.5-1.1c-0.3-0.3-0.7-0.5-1.1-0.5
	C12.1,10.2,12.1,10.2,12,10.2z"/>
</svg>
