<?xml version="1.0" encoding="utf-8"?>
<!-- Generator: Adobe Illustrator 26.4.1, SVG Export Plug-In . SVG Version: 6.00 Build 0)  -->
<svg version="1.1" id="Layer_1" xmlns="http://www.w3.org/2000/svg" xmlns:xlink="http://www.w3.org/1999/xlink" x="0px" y="0px"
	 viewBox="0 0 24 24" style="enable-background:new 0 0 24 24;" xml:space="preserve">
<path d="M12,21.8c-0.2,0-0.4,0-0.5,0c-0.3,0-0.6-0.1-0.9-0.3C8.4,20.5,3,17.3,3,10.2v-4C3,5,3,4.3,3.3,3.6
	c0.3-0.6,0.7-1,1.3-1.3C5.3,2,6,2,7.2,2h9.6c1.2,0,1.9,0,2.6,0.3c0.6,0.3,1,0.7,1.3,1.3C21,4.3,21,5,21,6.2v4
	c0,7.1-5.3,10.3-7.6,11.4c0,0,0,0,0,0c-0.2,0.1-0.4,0.2-0.8,0.3C12.4,21.8,12.2,21.8,12,21.8z M12.9,20.6L12.9,20.6L12.9,20.6z
	 M7.2,4C6.3,4,5.8,4,5.5,4.1C5.4,4.2,5.2,4.4,5.1,4.5C5,4.8,5,5.3,5,6.2v4c0,6,4.5,8.7,6.5,9.6c0.1,0.1,0.2,0.1,0.3,0.1
	c0.1,0,0.3,0,0.4,0c0.1,0,0.1,0,0.3-0.1c0,0,0,0,0,0c2-0.9,6.5-3.6,6.5-9.6v-4c0-0.9,0-1.4-0.1-1.7c-0.1-0.2-0.2-0.3-0.4-0.4
	C18.2,4,17.7,4,16.8,4H7.2z M11,14c-0.3,0-0.5-0.1-0.7-0.3l-2-2c-0.4-0.4-0.4-1,0-1.4s1-0.4,1.4,0l1.3,1.3l3.3-3.3
	c0.4-0.4,1-0.4,1.4,0s0.4,1,0,1.4l-4,4C11.5,13.9,11.3,14,11,14z"/>
</svg>
