<svg width="24" height="24" viewBox="0 0 24 24" xmlns="http://www.w3.org/2000/svg">
<path d="M9.98315 4.05632C9.67447 3.94179 9.31933 4.0054 9.08372 4.21556L5.24178 7.63485C4.91941 7.92152 4.91941 8.38681 5.24178 8.67347C5.56416 8.96039 6.08642 8.96039 6.40879 8.67347L8.84194 6.508L8.84194 18.4455C8.84194 18.8512 9.21133 19.18 9.66722 19.18C10.1231 19.18 10.4925 18.8512 10.4925 18.4455V4.73488C10.4925 4.43768 10.2916 4.16989 9.98315 4.05632V4.05632Z"/>
<path d="M18.7429 14.507C18.4205 14.2201 17.8983 14.2201 17.5759 14.507L15.1428 16.6725L15.1428 4.73499C15.1428 4.32924 14.7734 4.00049 14.3175 4.00049C13.8616 4.00049 13.4922 4.32924 13.4922 4.73499L13.4922 18.4456C13.4922 18.7428 13.6931 19.0106 14.0015 19.1242C14.1036 19.1619 14.2111 19.1801 14.3172 19.1801C14.5321 19.1801 14.7433 19.1055 14.901 18.9649L18.7429 15.5456C19.0653 15.259 19.0653 14.7937 18.7429 14.507V14.507Z"/>
</svg>
