<svg width="24" height="24" viewBox="0 0 24 24" xmlns="http://www.w3.org/2000/svg">
<path fill-rule="evenodd" clip-rule="evenodd" d="M3.0075 17.037C3.0095 17.109 3.0305 17.177 3.0495 17.246C3.0645 17.304 3.0715 17.363 3.0965 17.416C3.1195 17.468 3.1585 17.51 3.1925 17.558C3.2345 17.619 3.2725 17.68 3.3265 17.73C3.3355 17.739 3.3395 17.751 3.3495 17.759C3.3855 17.79 3.4295 17.801 3.4685 17.826C3.5285 17.865 3.5875 17.905 3.6555 17.931C3.7225 17.955 3.7885 17.961 3.8575 17.971C3.9055 17.978 3.9485 18 3.9995 18H8.9995C9.5525 18 9.9995 17.552 9.9995 17C9.9995 16.448 9.5525 16 8.9995 16H6.1735L10.2095 11.292L14.4855 13.857C14.9085 14.113 15.4525 14.019 15.7685 13.64L20.7685 7.64C21.1215 7.216 21.0645 6.585 20.6405 6.232C20.4525 6.076 20.2265 6 20.0005 6C19.7135 6 19.4295 6.122 19.2315 6.36L14.7795 11.702L10.5145 9.142C10.0955 8.891 9.5575 8.979 9.2405 9.349L4.9995 14.297V12C4.9995 11.448 4.5525 11 3.9995 11C3.4465 11 2.9995 11.448 2.9995 12V17C2.9995 17.013 3.0065 17.024 3.0075 17.037"/>
</svg>
