<?xml version="1.0" encoding="utf-8"?>
<!-- Generator: Adobe Illustrator 26.4.1, SVG Export Plug-In . SVG Version: 6.00 Build 0)  -->
<svg version="1.1" id="Layer_1" xmlns="http://www.w3.org/2000/svg" xmlns:xlink="http://www.w3.org/1999/xlink" x="0px" y="0px"
	 viewBox="0 0 24 24" style="enable-background:new 0 0 24 24;" xml:space="preserve">
<g>
	<path d="M11.2,20.8c-0.1-0.1-0.2-0.2-0.3-0.3c-0.1-0.1-0.2-0.1-0.3-0.1c-3.6-0.6-7.4-3.6-7.4-8.8c0-1.7,0.6-3.2,2-4.7
		C6,6,7.1,5.2,8,4.5v2.8C8,7.5,8,7.7,8.2,7.9c0.2,0.2,0.4,0.3,0.6,0.3c0.2,0,0.5-0.1,0.6-0.3c0.2-0.2,0.3-0.4,0.3-0.6V2.5
		c0-0.2-0.1-0.5-0.3-0.6C9.3,1.6,9.1,1.6,8.9,1.6H4.1c-0.2,0-0.5,0.1-0.6,0.3C3.2,2,3.2,2.2,3.2,2.5c0,0.2,0.1,0.5,0.3,0.6
		c0.2,0.2,0.4,0.3,0.6,0.3h2.3C5.5,4,4.6,4.8,3.7,5.7c-1.6,1.8-2.4,3.8-2.4,5.9c0,6.2,4.6,9.9,9,10.6c0.1,0,0.1,0,0.2,0
		c0.1,0,0.1,0,0.2,0c0.1,0,0.2-0.1,0.3-0.1c0.1-0.1,0.2-0.2,0.3-0.3c0.1-0.1,0.1-0.2,0.1-0.3s0-0.2,0-0.4S11.2,20.9,11.2,20.8z"/>
	<path d="M19.8,20.6h-2.3c0.8-0.6,1.8-1.4,2.6-2.4c1.6-1.8,2.4-3.8,2.4-5.9c0-6.1-4.6-9.8-8.8-10.6c-0.1,0-0.2,0-0.4,0
		c-0.1,0-0.2,0.1-0.3,0.1C13,1.9,12.9,2,12.8,2.1c-0.1,0.1-0.1,0.2-0.1,0.3c0,0.1,0,0.2,0,0.4c0,0.1,0.1,0.2,0.1,0.3
		c0.1,0.1,0.2,0.2,0.3,0.3c0.1,0.1,0.2,0.1,0.3,0.1c3.5,0.7,7.3,3.7,7.3,8.8c0,1.7-0.6,3.2-2,4.7c-0.9,1-2,1.8-2.8,2.5v-2.8
		c0-0.2-0.1-0.5-0.3-0.6c-0.3-0.3-0.9-0.3-1.3,0c-0.2,0.2-0.3,0.4-0.3,0.6v4.8c0,0.2,0.1,0.5,0.3,0.6c0.2,0.2,0.4,0.3,0.6,0.3h4.8
		c0.2,0,0.5-0.1,0.6-0.3c0.2-0.2,0.3-0.4,0.3-0.6s-0.1-0.5-0.3-0.6C20.3,20.7,20.1,20.6,19.8,20.6z"/>
</g>
</svg>
