<?xml version="1.0" encoding="utf-8"?>
<!-- Generator: Adobe Illustrator 26.4.1, SVG Export Plug-In . SVG Version: 6.00 Build 0)  -->
<svg version="1.1" id="Layer_1" xmlns="http://www.w3.org/2000/svg" xmlns:xlink="http://www.w3.org/1999/xlink" x="0px" y="0px"
	 viewBox="0 0 24 24" style="enable-background:new 0 0 24 24;" xml:space="preserve">
<path d="M12,11.4c-2.7,0-4.9-2.2-4.9-4.9S9.3,1.6,12,1.6c2.7,0,4.9,2.2,4.9,4.9S14.7,11.4,12,11.4z M12,3.4c-1.7,0-3.1,1.4-3.1,3.1
	s1.4,3.1,3.1,3.1c1.7,0,3.1-1.4,3.1-3.1S13.7,3.4,12,3.4z"/>
<path d="M12,22.4c-4.4,0-7.9-2.2-7.9-4.9s3.5-4.9,7.9-4.9s7.9,2.2,7.9,4.9S16.4,22.4,12,22.4z M12,14.4c-3.6,0-6.1,1.6-6.1,3.1
	s2.5,3.1,6.1,3.1s6.1-1.6,6.1-3.1S15.6,14.4,12,14.4z"/>
</svg>
